<svg id="visual" viewBox="0 0 900 600" width="900" height="600" xmlns="http://www.w3.org/2000/svg" xmlns:xlink="http://www.w3.org/1999/xlink" version="1.1"><g stroke-width="1" stroke-linejoin="bevel"><path d="M438 271L476 262L483 208Z" fill="#30555c" stroke="#30555c"></path><path d="M483 208L414.7 192L438 271Z" fill="#517a78" stroke="#517a78"></path><path d="M521.3 304L515.3 269L476 262Z" fill="#254650" stroke="#254650"></path><path d="M476 262L515.3 269L483 208Z" fill="#213f4a" stroke="#213f4a"></path><path d="M414.7 192L364.7 233L438 271Z" fill="#3c6368" stroke="#3c6368"></path><path d="M515.3 269L531.3 203L483 208Z" fill="#517a78" stroke="#517a78"></path><path d="M481 92L398.7 111L414.7 192Z" fill="#3c6368" stroke="#3c6368"></path><path d="M364.7 233L357.4 269L438 271Z" fill="#517a78" stroke="#517a78"></path><path d="M521.3 354L521.3 304L473 380Z" fill="#497272" stroke="#497272"></path><path d="M438 271L521.3 304L476 262Z" fill="#436b6d" stroke="#436b6d"></path><path d="M515.3 269L545.6 281L531.3 203Z" fill="#436b6d" stroke="#436b6d"></path><path d="M357.4 269L380.7 314L438 271Z" fill="#436b6d" stroke="#436b6d"></path><path d="M357.4 269L350.4 276L380.7 314Z" fill="#497272" stroke="#497272"></path><path d="M294.1 236L350.4 276L357.4 269Z" fill="#254650" stroke="#254650"></path><path d="M521.3 304L545.6 281L515.3 269Z" fill="#436b6d" stroke="#436b6d"></path><path d="M349.4 138L347.4 183L414.7 192Z" fill="#3c6368" stroke="#3c6368"></path><path d="M414.7 192L347.4 183L364.7 233Z" fill="#213f4a" stroke="#213f4a"></path><path d="M364.7 233L294.1 236L357.4 269Z" fill="#365c62" stroke="#365c62"></path><path d="M481 92L414.7 192L483 208Z" fill="#3c6368" stroke="#3c6368"></path><path d="M328.4 380L380.7 345L380.7 314Z" fill="#517a78" stroke="#517a78"></path><path d="M380.7 314L380.7 345L438 271Z" fill="#497272" stroke="#497272"></path><path d="M398.7 111L349.4 138L414.7 192Z" fill="#30555c" stroke="#30555c"></path><path d="M531.3 203L510.3 104L483 208Z" fill="#254650" stroke="#254650"></path><path d="M510.3 104L481 92L483 208Z" fill="#517a78" stroke="#517a78"></path><path d="M473 380L521.3 304L438 271Z" fill="#213f4a" stroke="#213f4a"></path><path d="M521.3 304L543.6 366L545.6 281Z" fill="#213f4a" stroke="#213f4a"></path><path d="M380.7 345L473 380L438 271Z" fill="#517a78" stroke="#517a78"></path><path d="M273.1 176L294.1 236L347.4 183Z" fill="#3c6368" stroke="#3c6368"></path><path d="M347.4 183L294.1 236L364.7 233Z" fill="#58817d" stroke="#58817d"></path><path d="M350.4 276L328.4 380L380.7 314Z" fill="#1c3844" stroke="#1c3844"></path><path d="M612.6 258L579.6 142L531.3 203Z" fill="#2b4d56" stroke="#2b4d56"></path><path d="M531.3 203L579.6 142L510.3 104Z" fill="#497272" stroke="#497272"></path><path d="M476.3 401L543.6 366L521.3 354Z" fill="#2b4d56" stroke="#2b4d56"></path><path d="M521.3 354L543.6 366L521.3 304Z" fill="#436b6d" stroke="#436b6d"></path><path d="M545.6 281L612.6 258L531.3 203Z" fill="#497272" stroke="#497272"></path><path d="M459 22L367.7 86L398.7 111Z" fill="#517a78" stroke="#517a78"></path><path d="M398.7 111L367.7 86L349.4 138Z" fill="#517a78" stroke="#517a78"></path><path d="M349.4 138L273.1 176L347.4 183Z" fill="#497272" stroke="#497272"></path><path d="M631.9 269L612.6 258L617.9 352Z" fill="#213f4a" stroke="#213f4a"></path><path d="M419 443L476.3 401L473 380Z" fill="#58817d" stroke="#58817d"></path><path d="M473 380L476.3 401L521.3 354Z" fill="#30555c" stroke="#30555c"></path><path d="M579.6 142L525.3 70L510.3 104Z" fill="#1c3844" stroke="#1c3844"></path><path d="M510.3 104L525.3 70L481 92Z" fill="#3c6368" stroke="#3c6368"></path><path d="M481 92L459 22L398.7 111Z" fill="#30555c" stroke="#30555c"></path><path d="M241.1 92L273.1 176L349.4 138Z" fill="#30555c" stroke="#30555c"></path><path d="M617.9 352L612.6 258L545.6 281Z" fill="#30555c" stroke="#30555c"></path><path d="M612.6 258L641.9 246L579.6 142Z" fill="#2b4d56" stroke="#2b4d56"></path><path d="M259.1 328L350.4 276L294.1 236Z" fill="#517a78" stroke="#517a78"></path><path d="M259.1 328L328.4 380L350.4 276Z" fill="#436b6d" stroke="#436b6d"></path><path d="M380.7 345L372.7 416L473 380Z" fill="#254650" stroke="#254650"></path><path d="M631.9 269L641.9 246L612.6 258Z" fill="#254650" stroke="#254650"></path><path d="M328.4 380L372.7 416L380.7 345Z" fill="#3c6368" stroke="#3c6368"></path><path d="M543.6 366L617.9 352L545.6 281Z" fill="#436b6d" stroke="#436b6d"></path><path d="M631.9 269L689.1 285L641.9 246Z" fill="#3c6368" stroke="#3c6368"></path><path d="M595.6 401L617.9 352L543.6 366Z" fill="#517a78" stroke="#517a78"></path><path d="M525.3 70L459 22L481 92Z" fill="#58817d" stroke="#58817d"></path><path d="M579.6 142L601.6 86L525.3 70Z" fill="#1c3844" stroke="#1c3844"></path><path d="M525.3 70L487 0L459 22Z" fill="#497272" stroke="#497272"></path><path d="M657.9 142L601.6 86L579.6 142Z" fill="#2b4d56" stroke="#2b4d56"></path><path d="M159.9 291L259.1 328L294.1 236Z" fill="#58817d" stroke="#58817d"></path><path d="M328.4 380L295.4 418L372.7 416Z" fill="#2b4d56" stroke="#2b4d56"></path><path d="M372.7 416L419 443L473 380Z" fill="#2b4d56" stroke="#2b4d56"></path><path d="M589.6 448L595.6 401L543.6 366Z" fill="#3c6368" stroke="#3c6368"></path><path d="M601.6 86L588.6 66L525.3 70Z" fill="#436b6d" stroke="#436b6d"></path><path d="M589.6 448L543.6 366L476.3 401Z" fill="#3c6368" stroke="#3c6368"></path><path d="M641.9 246L657.9 142L579.6 142Z" fill="#517a78" stroke="#517a78"></path><path d="M601.6 86L654.9 57L588.6 66Z" fill="#517a78" stroke="#517a78"></path><path d="M515.3 0L487 0L525.3 70Z" fill="#1c3844" stroke="#1c3844"></path><path d="M459 22L356.7 0L367.7 86Z" fill="#517a78" stroke="#517a78"></path><path d="M557.6 0L515.3 0L525.3 70Z" fill="#213f4a" stroke="#213f4a"></path><path d="M249.1 397L295.4 418L328.4 380Z" fill="#1c3844" stroke="#1c3844"></path><path d="M372.7 416L392.7 486L419 443Z" fill="#30555c" stroke="#30555c"></path><path d="M657.9 142L652.9 94L601.6 86Z" fill="#3c6368" stroke="#3c6368"></path><path d="M588.6 66L557.6 0L525.3 70Z" fill="#3c6368" stroke="#3c6368"></path><path d="M729.1 392L689.1 285L617.9 352Z" fill="#2b4d56" stroke="#2b4d56"></path><path d="M617.9 352L689.1 285L631.9 269Z" fill="#436b6d" stroke="#436b6d"></path><path d="M641.9 246L717.1 214L657.9 142Z" fill="#254650" stroke="#254650"></path><path d="M657.9 142L726.1 151L652.9 94Z" fill="#517a78" stroke="#517a78"></path><path d="M487 0L356.7 0L459 22Z" fill="#365c62" stroke="#365c62"></path><path d="M367.7 86L241.1 92L349.4 138Z" fill="#2b4d56" stroke="#2b4d56"></path><path d="M356.7 0L355.4 0L367.7 86Z" fill="#213f4a" stroke="#213f4a"></path><path d="M306.4 23L241.1 92L367.7 86Z" fill="#2b4d56" stroke="#2b4d56"></path><path d="M273.1 176L179.9 203L294.1 236Z" fill="#2b4d56" stroke="#2b4d56"></path><path d="M355.4 0L306.4 23L367.7 86Z" fill="#58817d" stroke="#58817d"></path><path d="M392.7 486L454 485L419 443Z" fill="#497272" stroke="#497272"></path><path d="M419 443L454 485L476.3 401Z" fill="#30555c" stroke="#30555c"></path><path d="M656.9 0L557.6 0L588.6 66Z" fill="#254650" stroke="#254650"></path><path d="M229.1 98L198.9 175L273.1 176Z" fill="#213f4a" stroke="#213f4a"></path><path d="M215.9 93L229.1 98L241.1 92Z" fill="#3c6368" stroke="#3c6368"></path><path d="M241.1 92L229.1 98L273.1 176Z" fill="#2b4d56" stroke="#2b4d56"></path><path d="M490.3 511L589.6 448L476.3 401Z" fill="#436b6d" stroke="#436b6d"></path><path d="M595.6 401L647.9 419L617.9 352Z" fill="#365c62" stroke="#365c62"></path><path d="M259.1 328L249.1 397L328.4 380Z" fill="#517a78" stroke="#517a78"></path><path d="M222.1 375L249.1 397L259.1 328Z" fill="#436b6d" stroke="#436b6d"></path><path d="M321.4 482L372.7 416L295.4 418Z" fill="#3c6368" stroke="#3c6368"></path><path d="M321.4 482L392.7 486L372.7 416Z" fill="#213f4a" stroke="#213f4a"></path><path d="M195.9 352L222.1 375L259.1 328Z" fill="#2b4d56" stroke="#2b4d56"></path><path d="M689.1 285L717.1 214L641.9 246Z" fill="#213f4a" stroke="#213f4a"></path><path d="M734.1 47L654.9 57L652.9 94Z" fill="#2b4d56" stroke="#2b4d56"></path><path d="M652.9 94L654.9 57L601.6 86Z" fill="#517a78" stroke="#517a78"></path><path d="M151.6 184L179.9 203L198.9 175Z" fill="#3c6368" stroke="#3c6368"></path><path d="M198.9 175L179.9 203L273.1 176Z" fill="#30555c" stroke="#30555c"></path><path d="M196.9 55L215.9 93L241.1 92Z" fill="#30555c" stroke="#30555c"></path><path d="M229.1 98L215.9 93L198.9 175Z" fill="#3c6368" stroke="#3c6368"></path><path d="M589.6 448L647.9 419L595.6 401Z" fill="#30555c" stroke="#30555c"></path><path d="M689.1 285L744.1 240L717.1 214Z" fill="#497272" stroke="#497272"></path><path d="M159.9 291L195.9 352L259.1 328Z" fill="#517a78" stroke="#517a78"></path><path d="M262.1 511L321.4 482L295.4 418Z" fill="#1c3844" stroke="#1c3844"></path><path d="M198.9 440L295.4 418L249.1 397Z" fill="#497272" stroke="#497272"></path><path d="M198.9 440L249.1 397L222.1 375Z" fill="#3c6368" stroke="#3c6368"></path><path d="M489.3 520L490.3 511L454 485Z" fill="#497272" stroke="#497272"></path><path d="M454 485L490.3 511L476.3 401Z" fill="#436b6d" stroke="#436b6d"></path><path d="M589.6 448L662.9 444L647.9 419Z" fill="#1c3844" stroke="#1c3844"></path><path d="M489.3 520L454 485L452 549Z" fill="#3c6368" stroke="#3c6368"></path><path d="M717.1 214L726.1 151L657.9 142Z" fill="#30555c" stroke="#30555c"></path><path d="M389.7 531L454 485L392.7 486Z" fill="#30555c" stroke="#30555c"></path><path d="M490.3 511L546.6 568L589.6 448Z" fill="#58817d" stroke="#58817d"></path><path d="M179.9 203L159.9 291L294.1 236Z" fill="#2b4d56" stroke="#2b4d56"></path><path d="M779.4 269L744.1 240L779.4 280Z" fill="#436b6d" stroke="#436b6d"></path><path d="M785.4 166L766.4 135L726.1 151Z" fill="#58817d" stroke="#58817d"></path><path d="M116.6 151L151.6 184L198.9 175Z" fill="#30555c" stroke="#30555c"></path><path d="M179.9 203L130.6 228L159.9 291Z" fill="#517a78" stroke="#517a78"></path><path d="M684.1 449L662.9 444L668.9 543Z" fill="#254650" stroke="#254650"></path><path d="M647.9 419L729.1 392L617.9 352Z" fill="#30555c" stroke="#30555c"></path><path d="M321.4 482L389.7 531L392.7 486Z" fill="#1c3844" stroke="#1c3844"></path><path d="M232.1 0L196.9 55L241.1 92Z" fill="#213f4a" stroke="#213f4a"></path><path d="M215.9 93L116.6 151L198.9 175Z" fill="#436b6d" stroke="#436b6d"></path><path d="M232.1 0L241.1 92L306.4 23Z" fill="#2b4d56" stroke="#2b4d56"></path><path d="M654.9 57L656.9 0L588.6 66Z" fill="#497272" stroke="#497272"></path><path d="M723.1 0L656.9 0L654.9 57Z" fill="#1c3844" stroke="#1c3844"></path><path d="M355.4 0L232.1 0L306.4 23Z" fill="#30555c" stroke="#30555c"></path><path d="M389.7 531L452 549L454 485Z" fill="#436b6d" stroke="#436b6d"></path><path d="M668.9 543L662.9 444L589.6 448Z" fill="#254650" stroke="#254650"></path><path d="M116.6 151L130.6 228L151.6 184Z" fill="#436b6d" stroke="#436b6d"></path><path d="M151.6 184L130.6 228L179.9 203Z" fill="#3c6368" stroke="#3c6368"></path><path d="M123.6 271L145.6 334L159.9 291Z" fill="#497272" stroke="#497272"></path><path d="M159.9 291L145.6 334L195.9 352Z" fill="#517a78" stroke="#517a78"></path><path d="M195.9 352L198.9 440L222.1 375Z" fill="#3c6368" stroke="#3c6368"></path><path d="M546.6 568L490.3 511L489.3 520Z" fill="#365c62" stroke="#365c62"></path><path d="M662.9 444L684.1 449L647.9 419Z" fill="#517a78" stroke="#517a78"></path><path d="M684.1 449L729.1 392L647.9 419Z" fill="#497272" stroke="#497272"></path><path d="M141.6 433L198.9 440L195.9 352Z" fill="#365c62" stroke="#365c62"></path><path d="M321.4 482L304.4 526L389.7 531Z" fill="#254650" stroke="#254650"></path><path d="M130.6 228L123.6 271L159.9 291Z" fill="#213f4a" stroke="#213f4a"></path><path d="M262.1 511L304.4 526L321.4 482Z" fill="#517a78" stroke="#517a78"></path><path d="M392.7 600L476 600L452 549Z" fill="#436b6d" stroke="#436b6d"></path><path d="M785.4 166L726.1 151L717.1 214Z" fill="#254650" stroke="#254650"></path><path d="M726.1 151L734.1 47L652.9 94Z" fill="#30555c" stroke="#30555c"></path><path d="M785.4 166L717.1 214L744.1 240Z" fill="#213f4a" stroke="#213f4a"></path><path d="M779.4 280L744.1 240L689.1 285Z" fill="#1c3844" stroke="#1c3844"></path><path d="M715.1 461L738.4 395L729.1 392Z" fill="#213f4a" stroke="#213f4a"></path><path d="M792.4 343L779.4 280L689.1 285Z" fill="#517a78" stroke="#517a78"></path><path d="M792.4 343L689.1 285L729.1 392Z" fill="#1c3844" stroke="#1c3844"></path><path d="M198.9 440L262.1 511L295.4 418Z" fill="#2b4d56" stroke="#2b4d56"></path><path d="M766.4 135L734.1 47L726.1 151Z" fill="#1c3844" stroke="#1c3844"></path><path d="M196.9 55L116.6 151L215.9 93Z" fill="#436b6d" stroke="#436b6d"></path><path d="M130.6 228L94.3 249L123.6 271Z" fill="#30555c" stroke="#30555c"></path><path d="M118.6 42L116.6 151L196.9 55Z" fill="#436b6d" stroke="#436b6d"></path><path d="M815.7 214L785.4 166L744.1 240Z" fill="#254650" stroke="#254650"></path><path d="M766.4 135L790.4 97L734.1 47Z" fill="#2b4d56" stroke="#2b4d56"></path><path d="M815.7 214L744.1 240L779.4 269Z" fill="#436b6d" stroke="#436b6d"></path><path d="M506.3 600L489.3 520L452 549Z" fill="#254650" stroke="#254650"></path><path d="M506.3 600L546.6 568L489.3 520Z" fill="#254650" stroke="#254650"></path><path d="M680.1 544L715.1 461L684.1 449Z" fill="#58817d" stroke="#58817d"></path><path d="M684.1 449L715.1 461L729.1 392Z" fill="#254650" stroke="#254650"></path><path d="M738.4 395L792.4 343L729.1 392Z" fill="#436b6d" stroke="#436b6d"></path><path d="M63.3 166L94.3 249L130.6 228Z" fill="#58817d" stroke="#58817d"></path><path d="M123.6 271L81.3 332L145.6 334Z" fill="#3c6368" stroke="#3c6368"></path><path d="M153.6 482L209.9 505L198.9 440Z" fill="#517a78" stroke="#517a78"></path><path d="M232.1 0L177.9 0L196.9 55Z" fill="#365c62" stroke="#365c62"></path><path d="M787.4 0L723.1 0L734.1 47Z" fill="#213f4a" stroke="#213f4a"></path><path d="M734.1 47L723.1 0L654.9 57Z" fill="#517a78" stroke="#517a78"></path><path d="M829.7 388L792.4 343L738.4 395Z" fill="#2b4d56" stroke="#2b4d56"></path><path d="M837.7 243L815.7 214L779.4 269Z" fill="#1c3844" stroke="#1c3844"></path><path d="M141.6 433L195.9 352L145.6 334Z" fill="#58817d" stroke="#58817d"></path><path d="M198.9 440L209.9 505L262.1 511Z" fill="#365c62" stroke="#365c62"></path><path d="M262.1 511L246.1 557L304.4 526Z" fill="#2b4d56" stroke="#2b4d56"></path><path d="M209.9 505L225.9 519L262.1 511Z" fill="#30555c" stroke="#30555c"></path><path d="M392.7 600L452 549L389.7 531Z" fill="#497272" stroke="#497272"></path><path d="M177.9 0L165.6 0L196.9 55Z" fill="#497272" stroke="#497272"></path><path d="M828.7 81L790.4 97L859.7 114Z" fill="#58817d" stroke="#58817d"></path><path d="M785.4 166L790.4 97L766.4 135Z" fill="#58817d" stroke="#58817d"></path><path d="M81.3 332L141.6 433L145.6 334Z" fill="#365c62" stroke="#365c62"></path><path d="M820.7 293L779.4 269L779.4 280Z" fill="#517a78" stroke="#517a78"></path><path d="M392.7 600L389.7 531L348.4 600Z" fill="#30555c" stroke="#30555c"></path><path d="M348.4 600L389.7 531L304.4 526Z" fill="#58817d" stroke="#58817d"></path><path d="M476 600L506.3 600L452 549Z" fill="#3c6368" stroke="#3c6368"></path><path d="M546.6 568L668.9 543L589.6 448Z" fill="#58817d" stroke="#58817d"></path><path d="M792.4 343L820.7 293L779.4 280Z" fill="#254650" stroke="#254650"></path><path d="M165.6 0L118.6 42L196.9 55Z" fill="#213f4a" stroke="#213f4a"></path><path d="M0 249L69.3 288L94.3 249Z" fill="#2b4d56" stroke="#2b4d56"></path><path d="M69.3 288L123.6 271L94.3 249Z" fill="#517a78" stroke="#517a78"></path><path d="M69.3 288L81.3 332L123.6 271Z" fill="#365c62" stroke="#365c62"></path><path d="M567.6 600L668.9 543L546.6 568Z" fill="#1c3844" stroke="#1c3844"></path><path d="M782.4 508L829.7 388L738.4 395Z" fill="#365c62" stroke="#365c62"></path><path d="M246.1 557L348.4 600L304.4 526Z" fill="#497272" stroke="#497272"></path><path d="M63.3 166L130.6 228L116.6 151Z" fill="#365c62" stroke="#365c62"></path><path d="M225.9 519L246.1 557L262.1 511Z" fill="#365c62" stroke="#365c62"></path><path d="M225.1 600L246.1 557L216.9 600Z" fill="#30555c" stroke="#30555c"></path><path d="M246.1 557L225.9 519L216.9 600Z" fill="#497272" stroke="#497272"></path><path d="M103.6 504L153.6 482L86.3 492Z" fill="#436b6d" stroke="#436b6d"></path><path d="M141.6 433L153.6 482L198.9 440Z" fill="#3c6368" stroke="#3c6368"></path><path d="M506.3 600L567.6 600L546.6 568Z" fill="#436b6d" stroke="#436b6d"></path><path d="M820.7 293L837.7 243L779.4 269Z" fill="#517a78" stroke="#517a78"></path><path d="M859.7 114L790.4 97L785.4 166Z" fill="#213f4a" stroke="#213f4a"></path><path d="M654.9 600L680.1 544L668.9 543Z" fill="#3c6368" stroke="#3c6368"></path><path d="M668.9 543L680.1 544L684.1 449Z" fill="#254650" stroke="#254650"></path><path d="M792.4 343L829.7 388L820.7 293Z" fill="#2b4d56" stroke="#2b4d56"></path><path d="M50.3 127L63.3 166L116.6 151Z" fill="#254650" stroke="#254650"></path><path d="M720.1 600L737.4 517L680.1 544Z" fill="#365c62" stroke="#365c62"></path><path d="M680.1 544L737.4 517L715.1 461Z" fill="#497272" stroke="#497272"></path><path d="M859.7 114L785.4 166L815.7 214Z" fill="#30555c" stroke="#30555c"></path><path d="M790.4 97L787.4 0L734.1 47Z" fill="#58817d" stroke="#58817d"></path><path d="M828.7 81L787.4 0L790.4 97Z" fill="#365c62" stroke="#365c62"></path><path d="M118.6 42L50.3 127L116.6 151Z" fill="#436b6d" stroke="#436b6d"></path><path d="M63.3 166L0 249L94.3 249Z" fill="#58817d" stroke="#58817d"></path><path d="M782.4 508L738.4 395L715.1 461Z" fill="#3c6368" stroke="#3c6368"></path><path d="M900 263L900 227L837.7 243Z" fill="#58817d" stroke="#58817d"></path><path d="M567.6 600L654.9 600L668.9 543Z" fill="#497272" stroke="#497272"></path><path d="M900 199L859.7 114L815.7 214Z" fill="#517a78" stroke="#517a78"></path><path d="M828.7 81L851.7 0L787.4 0Z" fill="#213f4a" stroke="#213f4a"></path><path d="M900 199L815.7 214L837.7 243Z" fill="#497272" stroke="#497272"></path><path d="M70.3 0L58.3 52L118.6 42Z" fill="#2b4d56" stroke="#2b4d56"></path><path d="M118.6 42L58.3 52L50.3 127Z" fill="#517a78" stroke="#517a78"></path><path d="M216.9 600L225.9 519L148.6 600Z" fill="#3c6368" stroke="#3c6368"></path><path d="M246.1 557L225.1 600L348.4 600Z" fill="#3c6368" stroke="#3c6368"></path><path d="M737.4 517L782.4 508L715.1 461Z" fill="#1c3844" stroke="#1c3844"></path><path d="M776.4 600L782.4 508L737.4 517Z" fill="#3c6368" stroke="#3c6368"></path><path d="M148.6 600L225.9 519L209.9 505Z" fill="#365c62" stroke="#365c62"></path><path d="M86.3 492L153.6 482L141.6 433Z" fill="#365c62" stroke="#365c62"></path><path d="M153.6 482L148.6 600L209.9 505Z" fill="#254650" stroke="#254650"></path><path d="M42.3 416L141.6 433L81.3 332Z" fill="#254650" stroke="#254650"></path><path d="M165.6 0L70.3 0L118.6 42Z" fill="#3c6368" stroke="#3c6368"></path><path d="M0 390L42.3 416L81.3 332Z" fill="#436b6d" stroke="#436b6d"></path><path d="M0 293L81.3 332L69.3 288Z" fill="#517a78" stroke="#517a78"></path><path d="M42.3 416L86.3 492L141.6 433Z" fill="#3c6368" stroke="#3c6368"></path><path d="M103.6 504L148.6 600L153.6 482Z" fill="#436b6d" stroke="#436b6d"></path><path d="M0 182L63.3 166L50.3 127Z" fill="#3c6368" stroke="#3c6368"></path><path d="M0 182L0 249L63.3 166Z" fill="#436b6d" stroke="#436b6d"></path><path d="M0 182L50.3 127L0 112Z" fill="#436b6d" stroke="#436b6d"></path><path d="M0 112L50.3 127L58.3 52Z" fill="#58817d" stroke="#58817d"></path><path d="M900 263L820.7 293L900 336Z" fill="#2b4d56" stroke="#2b4d56"></path><path d="M900 263L837.7 243L820.7 293Z" fill="#517a78" stroke="#517a78"></path><path d="M900 227L900 199L837.7 243Z" fill="#517a78" stroke="#517a78"></path><path d="M900 336L820.7 293L829.7 388Z" fill="#30555c" stroke="#30555c"></path><path d="M0 249L0 293L69.3 288Z" fill="#497272" stroke="#497272"></path><path d="M654.9 600L720.1 600L680.1 544Z" fill="#213f4a" stroke="#213f4a"></path><path d="M900 199L900 129L859.7 114Z" fill="#436b6d" stroke="#436b6d"></path><path d="M900 88L851.7 0L828.7 81Z" fill="#2b4d56" stroke="#2b4d56"></path><path d="M869.7 439L829.7 388L842.7 490Z" fill="#497272" stroke="#497272"></path><path d="M869.7 439L900 336L829.7 388Z" fill="#3c6368" stroke="#3c6368"></path><path d="M0 31L0 112L58.3 52Z" fill="#517a78" stroke="#517a78"></path><path d="M900 88L828.7 81L859.7 114Z" fill="#58817d" stroke="#58817d"></path><path d="M842.7 490L829.7 388L782.4 508Z" fill="#365c62" stroke="#365c62"></path><path d="M867.7 546L842.7 490L782.4 508Z" fill="#365c62" stroke="#365c62"></path><path d="M900 129L900 88L859.7 114Z" fill="#517a78" stroke="#517a78"></path><path d="M89.3 564L103.6 504L86.3 492Z" fill="#213f4a" stroke="#213f4a"></path><path d="M89.3 564L148.6 600L103.6 504Z" fill="#1c3844" stroke="#1c3844"></path><path d="M0 293L0 390L81.3 332Z" fill="#213f4a" stroke="#213f4a"></path><path d="M42.3 416L0 454L86.3 492Z" fill="#365c62" stroke="#365c62"></path><path d="M0 515L89.3 564L86.3 492Z" fill="#213f4a" stroke="#213f4a"></path><path d="M70.3 0L0 31L58.3 52Z" fill="#254650" stroke="#254650"></path><path d="M0 390L0 435L42.3 416Z" fill="#517a78" stroke="#517a78"></path><path d="M720.1 600L776.4 600L737.4 517Z" fill="#497272" stroke="#497272"></path><path d="M0 435L0 454L42.3 416Z" fill="#1c3844" stroke="#1c3844"></path><path d="M900 468L869.7 439L842.7 490Z" fill="#365c62" stroke="#365c62"></path><path d="M900 468L900 449L869.7 439Z" fill="#2b4d56" stroke="#2b4d56"></path><path d="M869.7 439L900 449L900 336Z" fill="#3c6368" stroke="#3c6368"></path><path d="M70.3 0L0 0L0 31Z" fill="#30555c" stroke="#30555c"></path><path d="M900 88L900 0L851.7 0Z" fill="#30555c" stroke="#30555c"></path><path d="M867.7 546L900 468L842.7 490Z" fill="#58817d" stroke="#58817d"></path><path d="M824.7 600L867.7 546L782.4 508Z" fill="#254650" stroke="#254650"></path><path d="M0 600L75.3 600L89.3 564Z" fill="#436b6d" stroke="#436b6d"></path><path d="M89.3 564L75.3 600L148.6 600Z" fill="#30555c" stroke="#30555c"></path><path d="M776.4 600L824.7 600L782.4 508Z" fill="#517a78" stroke="#517a78"></path><path d="M0 454L0 515L86.3 492Z" fill="#497272" stroke="#497272"></path><path d="M900 600L900 546L867.7 546Z" fill="#30555c" stroke="#30555c"></path><path d="M867.7 546L900 546L900 468Z" fill="#30555c" stroke="#30555c"></path><path d="M0 515L0 600L89.3 564Z" fill="#30555c" stroke="#30555c"></path><path d="M824.7 600L900 600L867.7 546Z" fill="#3c6368" stroke="#3c6368"></path></g></svg>